<?xml version="1.0" encoding="UTF-8"?><svg xmlns="http://www.w3.org/2000/svg" viewBox="0 0 264.53 319.36"><g id="Capa_1"><g><g><g><polygon points="90.69 73.27 91.35 80.69 170.68 56.77 172.43 38.27 90.69 73.27" style="fill:#8f5645;"/><path d="M91.35,81.04c-.07,0-.14-.02-.2-.06-.09-.06-.14-.16-.15-.26l-.67-7.42c-.01-.15,.07-.3,.21-.36l81.75-35c.11-.05,.25-.03,.35,.04,.1,.07,.16,.2,.14,.32l-1.75,18.5c-.01,.14-.11,.26-.25,.31l-79.33,23.92s-.07,.02-.1,.02Zm-.29-7.55l.6,6.73,78.69-23.72,1.67-17.67-80.96,34.66Z"/></g><g><polygon points="172.43 38.27 189.93 45.02 188.43 63.02 170.68 56.77 172.43 38.27" style="fill:#8f5645;"/><path d="M188.43,63.37s-.08,0-.12-.02l-17.75-6.25c-.15-.05-.25-.21-.23-.37l1.75-18.5c.01-.11,.07-.21,.17-.27,.09-.06,.21-.07,.31-.03l17.5,6.75c.15,.06,.24,.2,.23,.36l-1.5,18c0,.11-.07,.21-.16,.27-.06,.04-.13,.06-.19,.06Zm-17.37-6.85l17.06,6.01,1.44-17.28-16.82-6.49-1.68,17.76Z"/></g><g><polygon points="188.43 63.02 99.19 86.52 91.35 80.69 170.68 56.77 188.43 63.02" style="fill:#ba8561;"/><path d="M99.19,86.87c-.08,0-.15-.02-.21-.07l-7.83-5.83c-.11-.08-.16-.21-.14-.35,.02-.13,.12-.24,.25-.28l79.33-23.92c.07-.02,.15-.02,.22,0l17.75,6.25c.15,.05,.24,.19,.24,.35s-.11,.29-.26,.33l-89.25,23.5s-.06,.01-.09,.01Zm-7.06-6.05l7.13,5.31,87.97-23.16-16.55-5.83-78.55,23.68Z"/></g></g><g><polygon points="79.94 80.69 90.69 73.27 97.56 268.76 82.56 261.63 79.94 80.69" style="fill:#8f5645;"/><path d="M97.56,269.11c-.05,0-.1-.01-.15-.03l-15-7.12c-.12-.06-.2-.18-.2-.31l-2.62-180.95c0-.12,.06-.23,.15-.3l10.75-7.42c.11-.07,.24-.08,.36-.02,.12,.06,.19,.17,.19,.3l6.87,195.49c0,.12-.06,.24-.16,.31-.06,.04-.13,.06-.19,.06Zm-14.65-7.7l14.27,6.78-6.83-194.26-10.06,6.94,2.62,180.54Z"/></g><g><polygon points="97.56 268.76 108.06 257.51 99.19 86.52 91.35 80.69 97.56 268.76" style="fill:#ba8561;"/><path d="M97.56,269.11s-.08,0-.12-.02c-.13-.05-.22-.18-.23-.32l-6.21-188.07c0-.14,.07-.26,.19-.33,.12-.06,.27-.05,.38,.03l7.83,5.83c.08,.06,.14,.16,.14,.27l8.87,170.99c0,.1-.03,.19-.09,.26l-10.5,11.25c-.07,.07-.16,.11-.26,.11Zm-5.83-187.71l6.16,186.48,9.81-10.51-8.86-170.68-7.11-5.29Z"/></g><g><path d="M19.69,266.26s39,.5,61.75-5.25c8.23,4,21.5-2.75,21.5-2.75l5.12-.75,49.37,6.75s-52.75,.75-39,4.5c13.75,3.75,23.25,6.25,3.25,6.25s-30,8.25-41.75,5.5-3.25-3,3-7c-5.5-1-7.25-2-34.75-1.75-17-.75-38.5-.25-28.5-5.5Z" style="fill:#ecd09d;"/><path d="M19.68,266.23c12.94-.07,25.87-.58,38.75-1.86,7.65-.76,15.48-1.82,22.93-3.66,0,0,.11-.03,.11-.03,0,0,.1,.05,.1,.05,5.1,2.29,10.99,1,16.1-.65,1.76-.6,3.51-1.29,5.17-2.11,0,0,.04,0,.04,0l5.13-.73s.04,0,.04,0h.04c14.19,2.04,35.32,5,49.35,6.92,0,0-.01,.23-.01,.23-5.45,.1-10.9,.27-16.35,.49-6.8,.32-13.62,.59-20.37,1.5-.53,.08-4.44,.64-4.31,1.28,.66,.61,1.8,.77,2.68,1.04,3.81,1.06,8.08,2.1,11.8,3.43,.83,.35,3.14,1.04,2.41,2.11-.33,.34-.69,.39-1.08,.51-.69,.17-1.38,.25-2.06,.32-2.05,.2-4.1,.24-6.15,.27-3.97-.01-8.28,.14-12.19,.73-5.4,.74-10.64,2.2-15.9,3.6-7.46,1.99-12.82,2.66-20.29,.04-1.22-.4-2.92-1.34-1.16-2.5,1.5-.87,3.17-1.39,4.71-2.11,1.23-.55,2.44-1.15,3.57-1.87l.13,.65c-1.45-.26-2.87-.58-4.3-.81-10.12-1.4-20.39-.97-30.59-1.07-5.84-.28-11.68-.39-17.52-.68-2.91-.26-19.7-.52-10.78-5.08h0Zm.02,.07c-2.35,1.27-4.1,2.77-.1,3.67,3.57,.75,7.24,.84,10.88,1.01,11.68,.54,23.35,.47,35.05,.53,5.85,.07,11.75,.38,17.47,1.64,0,0,.89,.16,.89,.16-1.39,.93-2.9,1.75-4.42,2.42-1.25,.56-2.54,1.05-3.75,1.61-.42,.21-.87,.4-1.19,.72-.08,.09-.1,.15-.09,.14,0,.01,.06,.11,.16,.19,.1,.08,.23,.16,.37,.23,1.5,.71,3.16,1.05,4.79,1.46,5.3,1.34,10.76,.2,15.96-1.16,7.9-2.15,15.95-4.12,24.18-4.23,2.33-.02,5.86-.01,8.17-.14,1.51-.1,3.04-.11,4.45-.56,.14-.05,.27-.13,.32-.18,0-.02,.01,0,0,0,0,0,0,0,0-.02-.54-.59-1.4-.82-2.16-1.15-3.65-1.34-7.95-2.43-11.73-3.5-.69-.24-3.13-.66-3.03-1.67,.08-.36,.42-.52,.69-.66,2.61-.94,5.39-1.04,8.12-1.35,5.44-.48,10.89-.73,16.34-.93,5.45-.2,10.9-.33,16.36-.41,0,0-.01,.23-.01,.23-7.05-1.01-17.51-2.35-24.69-3.33,0,.02-24.95-3.29-24.63-3.26,0,0-5.12,.77-5.12,.77-1.22,.67-3.47,1.53-5.11,2.1-5.26,1.72-11.3,3.05-16.57,.63-8.95,2.41-20.58,3.51-30.57,4.22-10.29,.68-20.74,.93-31.04,.79h0Z"/></g><g><g><polygon points="120.58 74.34 95.27 108.18 95.27 117.68 126.27 72.81 120.58 74.34" style="fill:#8f5645;"/><path d="M95.27,118.04s-.07,0-.11-.02c-.15-.05-.25-.18-.25-.34v-9.5c0-.08,.02-.15,.07-.21l25.31-33.84c.05-.06,.11-.11,.19-.13l5.69-1.54c.14-.04,.3,.02,.38,.14,.09,.12,.09,.28,0,.41l-31,44.88c-.07,.1-.18,.15-.29,.15Zm.35-9.74v8.25l29.8-43.15-4.64,1.25-25.17,33.65Z"/></g><g><polygon points="126.27 72.81 127.35 76.39 98.94 117.68 95.27 117.68 126.27 72.81" style="fill:#ba8561;"/><path d="M98.94,118.04h-3.67c-.13,0-.25-.07-.31-.19-.06-.12-.05-.26,.02-.37l31-44.88c.08-.11,.21-.17,.35-.15,.13,.02,.24,.12,.28,.25l1.08,3.58c.03,.1,.01,.21-.05,.3l-28.42,41.29c-.07,.1-.18,.15-.29,.15Zm-2.99-.71h2.81l28.21-41-.82-2.72-30.2,43.72Z"/></g></g></g></g><g id="Capa_3"><g><polyline points="167.61 63.66 170.88 63.02 172.28 95.43 169.16 96.6 167.61 63.66" style="fill:#867664;"/><path d="M168.83,97.1l-1.59-33.73,3.97-.78,1.42,33.08-3.81,1.43Zm-.85-33.16l1.51,32.15,2.42-.91-1.37-31.75-2.56,.5Z"/></g></g><g id="Capa_4"><g><ellipse cx="170.68" cy="124.96" rx="35.56" ry="29.46" style="fill:#f4e1d3;"/><path d="M206.33,124.96c.09,13.29-10.52,24.55-22.81,28.29-18.18,6.02-42.17-2.55-47.93-21.87-4.52-16.01,7.35-30.31,22.22-34.85,12.39-3.94,26.92-2.01,37.18,6.19,6.76,5.33,11.41,13.55,11.35,22.24h0Zm-.18,0c.01-12.13-9.32-21.68-20.16-25.72-8.76-3.39-18.66-3.69-27.63-.95-11.85,3.44-22.57,13.78-22.75,26.67-.3,10.76,7.23,20.38,16.71,24.83,10.45,4.99,22.96,5.1,33.69,.95,10.83-4.09,20.18-13.63,20.14-25.77h0Z"/></g><path d="M164.92,135.19c-.5,.52,1.06,.87,1.84,.48,.54-.28,.96-.54,1.7-.71,.74-.18,1.56-.28,2.4-.29,.91,0,1.81,.08,2.68,.18,.47,.06,.93,.14,1.37,.23,.46,.1,.87,.21,1.4,.21,.2,0,.42-.07,.37-.17-.24-.5-1.55-.81-2.47-1.04-1.11-.28-2.4-.39-3.66-.37-1.06,.02-2.15,.15-3.08,.38-1.01,.25-2.08,.62-2.54,1.11Z"/></g><g id="Capa_5"><g><ellipse cx="157.2" cy="121.54" rx="2.93" ry="4.6"/><ellipse cx="184.47" cy="121.54" rx="2.93" ry="4.6"/></g></g></svg>