<?xml version="1.0" encoding="UTF-8"?><svg xmlns="http://www.w3.org/2000/svg" viewBox="0 0 264.53 319.36"><g id="Capa_1"><g><g><g><polygon points="90.69 73.27 91.35 80.69 170.68 56.77 172.43 38.27 90.69 73.27" style="fill:#8f5645;"/><path d="M91.35,81.04c-.07,0-.14-.02-.2-.06-.09-.06-.14-.16-.15-.26l-.67-7.42c-.01-.15,.07-.3,.21-.36l81.75-35c.11-.05,.25-.03,.35,.04,.1,.07,.16,.2,.14,.32l-1.75,18.5c-.01,.14-.11,.26-.25,.31l-79.33,23.92s-.07,.02-.1,.02Zm-.29-7.55l.6,6.73,78.69-23.72,1.67-17.67-80.96,34.66Z"/></g><g><polygon points="172.43 38.27 189.93 45.02 188.43 63.02 170.68 56.77 172.43 38.27" style="fill:#8f5645;"/><path d="M188.43,63.37s-.08,0-.12-.02l-17.75-6.25c-.15-.05-.25-.21-.23-.37l1.75-18.5c.01-.11,.07-.21,.17-.27,.09-.06,.21-.07,.31-.03l17.5,6.75c.15,.06,.24,.2,.23,.36l-1.5,18c0,.11-.07,.21-.16,.27-.06,.04-.13,.06-.19,.06Zm-17.37-6.85l17.06,6.01,1.44-17.28-16.82-6.49-1.68,17.76Z"/></g><g><polygon points="188.43 63.02 99.19 86.52 91.35 80.69 170.68 56.77 188.43 63.02" style="fill:#ba8561;"/><path d="M99.19,86.87c-.08,0-.15-.02-.21-.07l-7.83-5.83c-.11-.08-.16-.21-.14-.35,.02-.13,.12-.24,.25-.28l79.33-23.92c.07-.02,.15-.02,.22,0l17.75,6.25c.15,.05,.24,.19,.24,.35s-.11,.29-.26,.33l-89.25,23.5s-.06,.01-.09,.01Zm-7.06-6.05l7.13,5.31,87.97-23.16-16.55-5.83-78.55,23.68Z"/></g></g><g><polygon points="79.94 80.69 90.69 73.27 97.56 268.76 82.56 261.63 79.94 80.69" style="fill:#8f5645;"/><path d="M97.56,269.11c-.05,0-.1-.01-.15-.03l-15-7.12c-.12-.06-.2-.18-.2-.31l-2.62-180.95c0-.12,.06-.23,.15-.3l10.75-7.42c.11-.07,.24-.08,.36-.02,.12,.06,.19,.17,.19,.3l6.87,195.49c0,.12-.06,.24-.16,.31-.06,.04-.13,.06-.19,.06Zm-14.65-7.7l14.27,6.78-6.83-194.26-10.06,6.94,2.62,180.54Z"/></g><g><polygon points="97.56 268.76 108.06 257.51 99.19 86.52 91.35 80.69 97.56 268.76" style="fill:#ba8561;"/><path d="M97.56,269.11s-.08,0-.12-.02c-.13-.05-.22-.18-.23-.32l-6.21-188.07c0-.14,.07-.26,.19-.33,.12-.06,.27-.05,.38,.03l7.83,5.83c.08,.06,.14,.16,.14,.27l8.87,170.99c0,.1-.03,.19-.09,.26l-10.5,11.25c-.07,.07-.16,.11-.26,.11Zm-5.83-187.71l6.16,186.48,9.81-10.51-8.86-170.68-7.11-5.29Z"/></g><g><path d="M19.69,266.26s39,.5,61.75-5.25c8.23,4,21.5-2.75,21.5-2.75l5.12-.75,49.37,6.75s-52.75,.75-39,4.5c13.75,3.75,23.25,6.25,3.25,6.25s-30,8.25-41.75,5.5-3.25-3,3-7c-5.5-1-7.25-2-34.75-1.75-17-.75-38.5-.25-28.5-5.5Z" style="fill:#ecd09d;"/><path d="M19.68,266.23c12.94-.07,25.87-.58,38.75-1.86,7.65-.76,15.48-1.82,22.93-3.66,0,0,.11-.03,.11-.03,0,0,.1,.05,.1,.05,5.1,2.29,10.99,1,16.1-.65,1.76-.6,3.51-1.29,5.17-2.11,0,0,.04,0,.04,0l5.13-.73s.04,0,.04,0h.04c14.19,2.04,35.32,5,49.35,6.92,0,0-.01,.23-.01,.23-5.45,.1-10.9,.27-16.35,.49-6.8,.32-13.62,.59-20.37,1.5-.53,.08-4.44,.64-4.31,1.28,.66,.61,1.8,.77,2.68,1.04,3.81,1.06,8.08,2.1,11.8,3.43,.83,.35,3.14,1.04,2.41,2.11-.33,.34-.69,.39-1.08,.51-.69,.17-1.38,.25-2.06,.32-2.05,.2-4.1,.24-6.15,.27-3.97-.01-8.28,.14-12.19,.73-5.4,.74-10.64,2.2-15.9,3.6-7.46,1.99-12.82,2.66-20.29,.04-1.22-.4-2.92-1.34-1.16-2.5,1.5-.87,3.17-1.39,4.71-2.11,1.23-.55,2.44-1.15,3.57-1.87l.13,.65c-1.45-.26-2.87-.58-4.3-.81-10.12-1.4-20.39-.97-30.59-1.07-5.84-.28-11.68-.39-17.52-.68-2.91-.26-19.7-.52-10.78-5.08h0Zm.02,.07c-2.35,1.27-4.1,2.77-.1,3.67,3.57,.75,7.24,.84,10.88,1.01,11.68,.54,23.35,.47,35.05,.53,5.85,.07,11.75,.38,17.47,1.64,0,0,.89,.16,.89,.16-1.39,.93-2.9,1.75-4.42,2.42-1.25,.56-2.54,1.05-3.75,1.61-.42,.21-.87,.4-1.19,.72-.08,.09-.1,.15-.09,.14,0,.01,.06,.11,.16,.19,.1,.08,.23,.16,.37,.23,1.5,.71,3.16,1.05,4.79,1.46,5.3,1.34,10.76,.2,15.96-1.16,7.9-2.15,15.95-4.12,24.18-4.23,2.33-.02,5.86-.01,8.17-.14,1.51-.1,3.04-.11,4.45-.56,.14-.05,.27-.13,.32-.18,0-.02,.01,0,0,0,0,0,0,0,0-.02-.54-.59-1.4-.82-2.16-1.15-3.65-1.34-7.95-2.43-11.73-3.5-.69-.24-3.13-.66-3.03-1.67,.08-.36,.42-.52,.69-.66,2.61-.94,5.39-1.04,8.12-1.35,5.44-.48,10.89-.73,16.34-.93,5.45-.2,10.9-.33,16.36-.41,0,0-.01,.23-.01,.23-7.05-1.01-17.51-2.35-24.69-3.33,0,.02-24.95-3.29-24.63-3.26,0,0-5.12,.77-5.12,.77-1.22,.67-3.47,1.53-5.11,2.1-5.26,1.72-11.3,3.05-16.57,.63-8.95,2.41-20.58,3.51-30.57,4.22-10.29,.68-20.74,.93-31.04,.79h0Z"/></g><g><g><polygon points="120.58 74.34 95.27 108.18 95.27 117.68 126.27 72.81 120.58 74.34" style="fill:#8f5645;"/><path d="M95.27,118.04s-.07,0-.11-.02c-.15-.05-.25-.18-.25-.34v-9.5c0-.08,.02-.15,.07-.21l25.31-33.84c.05-.06,.11-.11,.19-.13l5.69-1.54c.14-.04,.3,.02,.38,.14,.09,.12,.09,.28,0,.41l-31,44.88c-.07,.1-.18,.15-.29,.15Zm.35-9.74v8.25l29.8-43.15-4.64,1.25-25.17,33.65Z"/></g><g><polygon points="126.27 72.81 127.35 76.39 98.94 117.68 95.27 117.68 126.27 72.81" style="fill:#ba8561;"/><path d="M98.94,118.04h-3.67c-.13,0-.25-.07-.31-.19-.06-.12-.05-.26,.02-.37l31-44.88c.08-.11,.21-.17,.35-.15,.13,.02,.24,.12,.28,.25l1.08,3.58c.03,.1,.01,.21-.05,.3l-28.42,41.29c-.07,.1-.18,.15-.29,.15Zm-2.99-.71h2.81l28.21-41-.82-2.72-30.2,43.72Z"/></g></g></g></g><g id="Capa_3"><g><polyline points="167.61 63.66 170.88 63.02 172.28 95.43 169.16 96.6 167.61 63.66" style="fill:#867664;"/><path d="M168.83,97.1l-1.59-33.73,3.97-.78,1.42,33.08-3.81,1.43Zm-.85-33.16l1.51,32.15,2.42-.91-1.37-31.75-2.56,.5Z"/></g></g><g id="Capa_8"><g><path d="M199.49,192.3c-.97-18.49-20.44-38.39-20.63-38.59l.76-.75c.2,.2,19.95,20.4,20.94,39.28l-1.06,.06Z"/><g><ellipse cx="195.98" cy="189.96" rx="3.72" ry="9.41" transform="translate(-37.93 49.32) rotate(-13.09)" style="fill:#f4e1d3;"/><path d="M198.1,199.08c2.4-.85,1.7-5.25,1.49-7.25-.38-2.62-.8-5.29-1.99-7.69-2.51-4.63-5.26-4.01-5.31,1.32-.19,2.85,1.99,14.15,5.81,13.61h0Zm.02,.1c-1.8,.3-3.32-1.84-4.22-3.15-1.97-3.14-2.78-6.91-2.62-10.6,.36-5.85,3.82-6.69,6.61-1.45,1.79,3.17,3.03,6.82,2.61,10.51-.23,1.59-.63,4.14-2.39,4.69h0Z"/></g></g></g><g id="Capa_9"><g><path d="M141.04,192.57l-1.06-.06c.99-18.89,20.74-39.08,20.94-39.28l.76,.75c-.2,.2-19.66,20.11-20.63,38.59Z"/><g><ellipse cx="144.4" cy="191.33" rx="9.41" ry="3.72" transform="translate(-64.32 309.2) rotate(-82.41)" style="fill:#f4e1d3;"/><path d="M145.65,181.95c1.8,.38,2.44,2.89,2.82,4.44,.77,3.63-.11,7.39-1.59,10.71-2.27,5.47-5.8,5-6.72-.81-.51-3.65-.07-7.49,1.59-10.8,.77-1.4,2.07-3.66,3.9-3.54h0Zm-.01,.11c-3.85-.17-4.95,11.28-4.48,14.11,.55,5.28,3.35,5.68,5.41,.81,.96-2.5,1.12-5.2,1.25-7.85,.02-2,.28-6.47-2.18-7.07h0Z"/></g></g></g><g id="Capa_11"><g><g><ellipse cx="152.95" cy="227.36" rx="9.19" ry="2.92" style="fill:#16423d;"/><path d="M162.68,227.36c-.16,1.95-3.05,2.54-4.58,2.89-3.4,.62-6.88,.57-10.26-.13-5.73-1.23-5.83-4.29,.03-5.4,3.35-.61,6.82-.56,10.15,.13,1.27,.32,3.98,.95,4.13,2.5,0,0,.53,0,.53,0h0Zm-.53,0c-.18-1.54-2.89-2.08-4.16-2.37-3.31-.6-6.76-.56-10.04,.13-5.14,1.17-5.24,3.3,.03,4.36,3.26,.59,6.7,.55,9.93-.13,1.04-.26,3.49-.85,3.71-1.98,0,0,.53,0,.53,0h0Z"/></g><rect x="144.11" y="208.26" width="38.15" height="1.06" transform="translate(-54.21 360.31) rotate(-86.87)"/></g></g><g id="Capa_10"><g><g><ellipse cx="185.92" cy="227.85" rx="9.19" ry="2.92" style="fill:#16423d;"/><path d="M177.26,227.85c.22,1.14,2.67,1.72,3.71,1.98,3.24,.68,6.67,.72,9.93,.13,2.05-.34,6.18-1.85,2.4-3.6-2.31-.99-4.88-1.24-7.38-1.3-2.02-.05-8.83,.32-9.19,2.78,0,0,.53,0,.53,0h0Zm-.53,0c.13-1.54,2.87-2.18,4.13-2.5,3.33-.69,6.8-.74,10.15-.13,1.73,.27,6.09,1.67,3.65,3.91-1.05,.83-2.36,1.18-3.63,1.49-1.68,.37-3.4,.53-5.12,.55-2.32,.03-9.45-.3-9.72-3.32,0,0,.53,0,.53,0h0Z"/></g><rect x="175.15" y="190.21" width="1.06" height="38.15" transform="translate(-11.17 9.91) rotate(-3.13)"/></g></g><g id="Capa_7"><g><path d="M161.37,153.4c-.48,1.6-20.39,36.55-.24,37.89,1.52,0,15.01,.88,21.88,.41,11.51-.79-1.19-32.18-4.16-37.96-6.87,2.63-12.13-.34-17.48-.34Z" style="fill:#40bcb0;"/><path d="M161.41,153.45s0,.05,0,.07l-.04,.1-.08,.2s-.17,.39-.17,.39c-.77,1.77-1.64,3.66-2.37,5.44-2.91,7.08-11.07,26.04-1.45,30.42,1.99,.96,4.36,.98,6.53,1.1,4.51,.25,9.03,.41,13.55,.32,1.69-.03,3.38-.08,5.06-.22,3.11-.03,4.34-2.32,4.59-5.16,.2-2.16-.02-4.39-.37-6.58-.75-4.41-2.04-8.73-3.45-12.98-1.43-4.24-3-8.5-4.88-12.55,0,0,.74,.28,.74,.28-2.86,1.05-6,1.21-8.98,.72-2.92-.44-5.72-1.35-8.67-1.56h0Zm-.08-.11c2.97-.15,5.93,.63,8.85,.91,2.88,.31,5.78,.01,8.46-1.07,0,0,.49-.19,.49-.19l.25,.48c2.09,4.06,3.74,8.3,5.25,12.6,1.82,5.4,3.38,10.96,3.73,16.69,.17,3.34-.22,8.15-4.08,9.22-1.19,.29-2.31,.2-3.5,.24-5.24,.02-11.69-.41-16.97-.59-2.29-.09-4.62,0-6.8-.89-10.24-4.4-3.68-20.93-.36-28.3,1.4-3.1,3.07-6.11,4.68-9.09h0Z"/></g></g><g id="Capa_4"><g><ellipse cx="170.68" cy="124.96" rx="35.56" ry="29.46" style="fill:#f4e1d3;"/><path d="M206.33,124.96c.09,13.29-10.52,24.55-22.81,28.29-18.18,6.02-42.17-2.55-47.93-21.87-4.52-16.01,7.35-30.31,22.22-34.85,12.39-3.94,26.92-2.01,37.18,6.19,6.76,5.33,11.41,13.55,11.35,22.24h0Zm-.18,0c.01-12.13-9.32-21.68-20.16-25.72-8.76-3.39-18.66-3.69-27.63-.95-11.85,3.44-22.57,13.78-22.75,26.67-.3,10.76,7.23,20.38,16.71,24.83,10.45,4.99,22.96,5.1,33.69,.95,10.83-4.09,20.18-13.63,20.14-25.77h0Z"/></g><path d="M164.92,135.19c-.5,.52,1.06,.87,1.84,.48,.54-.28,.96-.54,1.7-.71,.74-.18,1.56-.28,2.4-.29,.91,0,1.81,.08,2.68,.18,.47,.06,.93,.14,1.37,.23,.46,.1,.87,.21,1.4,.21,.2,0,.42-.07,.37-.17-.24-.5-1.55-.81-2.47-1.04-1.11-.28-2.4-.39-3.66-.37-1.06,.02-2.15,.15-3.08,.38-1.01,.25-2.08,.62-2.54,1.11Z"/></g><g id="Capa_6"><g><path d="M163.73,116.9c-.33,.12-1.1,.5-1.55,.76-1.26,.73-2.67,1.73-3.88,2.76l-.42,.36c-1.07-1.3-1.88-2.54-2.16-3.17-.14-.26-.6-.31-.82-.21-.2,.09-.29,.3-.22,.51,.21,.64,1.23,2.14,2.43,3.56-1.7,1.57-3.02,3.07-3.63,4.15l-.03,.05v.06c-.05,.26,.17,.55,.39,.63,.05,.02,.1,.03,.15,.03,.14,0,.27-.07,.34-.19,.89-1.32,2.05-2.65,3.44-3.95,.14,.16,.29,.32,.44,.46,1.79,1.89,3.84,3.48,4.67,3.62,.22,.04,.35-.08,.4-.2,.12-.28-.09-.42-.55-.74-.07-.05-.13-.09-.15-.11l-.25-.21c-.73-.6-2.1-1.7-3.42-3.12-.14-.14-.26-.28-.38-.41l.39-.34c1.28-1.08,2.65-2.07,3.96-2.86,.19-.11,.5-.25,.79-.39,.7-.33,1-.48,1.13-.66,.12-.18,.08-.35,0-.45-.19-.25-.52-.14-1.08,.06Z"/><path d="M187.92,125.73v-.06s-.04-.05-.04-.05c-.62-1.08-1.93-2.58-3.63-4.15,1.19-1.42,2.22-2.92,2.43-3.55,.07-.21-.02-.43-.22-.52-.22-.1-.68-.05-.83,.24-.27,.6-1.08,1.85-2.15,3.14l-.42-.36c-1.21-1.02-2.62-2.03-3.88-2.76-.44-.25-1.21-.64-1.55-.76-.57-.2-.9-.3-1.08-.06-.08,.1-.12,.27,0,.45,.12,.18,.42,.33,1.13,.66,.3,.14,.61,.28,.79,.39,1.31,.79,2.68,1.78,3.96,2.86l.4,.35c-.12,.13-.24,.27-.38,.41-1.32,1.41-2.68,2.52-3.41,3.12l-.25,.2s-.09,.06-.16,.11c-.46,.31-.67,.46-.55,.74,.05,.12,.18,.24,.4,.2,.84-.15,2.89-1.73,4.67-3.62,.15-.15,.3-.31,.44-.47,1.39,1.31,2.54,2.63,3.43,3.94,.08,.13,.21,.21,.36,.21,.05,0,.1,0,.15-.03,.22-.08,.44-.37,.4-.63Z"/></g></g></svg>